<svg height="163" viewBox="0 0 400 163" width="400" xmlns="http://www.w3.org/2000/svg" xmlns:xlink="http://www.w3.org/1999/xlink"><radialGradient id="a" cx="54.698963%" cy="46.730904%" gradientTransform="matrix(-.72242482 -.44985841 .69144947 -.47001104 .619029 .933017)" r="93.77951%"><stop offset="0" stop-color="#725845"/><stop offset="1" stop-color="#382110"/></radialGradient><mask id="b" fill="#fff"><path d="m0 .59669998h120.319546v42.26429842h-120.319546z" fill="#fff" fill-rule="evenodd"/></mask><g fill="none" fill-rule="evenodd"><g transform="matrix(0 1 -1 0 400 0)"><g transform="translate(1)"><circle cx="81" cy="81" fill="#f4f1ea" r="81"/><path d="m82.5905687 41.0952431c-4.3598038 0-8.2364487.7659324-11.6299354 2.3167658-3.3841178 1.5384058-6.2355564 3.6458647-8.5355787 6.3106032-2.2913228 2.6745498-4.0506359 5.7919146-5.2491637 9.364522-1.2179344 3.5614878-1.8168636 7.3505968-1.8168636 11.3293903 0 4.1370818.5018961 8.0314985 1.5157262 11.6688601 1.0165067 3.6471729 2.6306044 6.8220971 4.8543385 9.5339296 2.2223956 2.7020215 5.0457283 4.8271407 8.4786973 6.3773198 3.4209234 1.5410221 7.549855 2.3056461 12.3827794 2.3056461 4.4481375 0 8.3140754-1.0864333 11.6306045-3.2684578 3.305822-2.1748296 5.8186478-5.0750383 7.5398168-8.6842743h.230203v7.8902162c0 7.0680329-1.516395 12.4825409-4.5598928 16.2428699-3.0368055 3.760984-7.9875082 5.640821-14.8407315 5.640821-2.0202989 0-4.0111533-.207344-5.9652019-.623342-1.9433414-.415997-3.7207227-1.068773-5.3167521-1.97468-1.5940219-.898711-2.9578407-2.079987-4.0881107-3.554293-1.1322775-1.454029-1.8857909-3.286772-2.2826233-5.469451h-7.3557885c.2315413 3.089239 1.1108632 5.735664 2.6192282 7.956279 1.5277716 2.218653 3.4322999 4.043548 5.7329914 5.470105 2.3000223 1.427212 4.890475 2.475709 7.7713583 3.155956 2.8808835.679594 5.8501004 1.011214 8.8848986 1.011214 4.910551 0 9.0495205-.632499 12.4416686-1.909926 3.3928173-1.283966 6.1385237-3.126521 8.2451487-5.526356 2.098594-2.409646 3.637073-5.338634 4.61209-8.796777.976355-3.468608 1.469551-7.333591 1.469551-11.6224199v-53.4524055h-7.367834v10.0343039h-.230203c-.704662-1.5776507-1.692393-3.0800818-2.977247-4.5066393-1.2955612-1.4272115-2.7564133-2.6935183-4.3892483-3.7799519-1.6335045-1.0962449-3.4503681-1.9373971-5.433192-2.5319595-1.9915237-.6056819-4.1088558-.9078687-6.370734-.9078687zm-9.4708216 50.7563946c-2.5003621-1.3187217-4.5645365-3.0424516-6.2133261-5.1822766-1.6380525-2.1293902-2.8499832-4.5874823-3.6257263-7.3560154-.785138-2.7809247-1.1716674-5.626416-1.1716674-8.5553871 0-2.9863635.3677398-5.9362048 1.1038906-8.8201749.7468874-2.8911442 1.9393576-5.4535865 3.576739-7.7062398 1.6380527-2.2520011 3.7143063-4.0605152 6.2146684-5.4535865 2.4996911-1.3858969 5.506031-2.0746062 9.0250592-2.0746062 3.5196992 0 6.5038941.7069705 8.9680192 2.1306943 2.4607696 1.4217674 4.4685753 3.3065873 6.0388509 5.6231552 1.5508153 2.3283069 2.6942979 4.9096625 3.3921984 7.7551536.707966 2.8539696 1.055574 5.6994609 1.055574 8.5456043 0 2.9289711-.416727 5.7744624-1.229378 8.5553871-.8247303 2.7685331-2.0547796 5.2266252-3.6948454 7.3560154-1.6367106 2.139825-3.6727007 3.8635549-6.095891 5.1822766-2.4245326 1.3102434-5.2362656 1.9598216-8.4345281 1.9598216-3.4411856 0-6.4079329-.6495782-8.9096374-1.9598216z" fill="url(#a)" fill-rule="nonzero" transform="matrix(0 -1 1 0 -.236216 164.95427)"/></g><circle cx="81" cy="318.404757" fill="#418fde" r="81"/></g><path d="m114.953146 25.6327491c-.1118-3.8843999-2.00135-7.7707498-6.18215-7.7707498-4.00205 0-6.42655 3.5333999-6.4831 7.7707498zm-17.9692496 2.5382499c0-8.4857497 4.6546496-14.4338995 11.7870996-14.4338995 7.30535 0 11.54855 5.5971498 11.54855 14.4949995v1.2973999h-18.03165c.11245 5.2370498 3.29875 9.1272997 8.8413 9.1272997 2.6494 0 4.94715-.82225 6.89195-1.8888999l1.6484 3.5996998c-2.59285 1.6484-6.01185 2.5323999-9.18775 2.5323999-9.25665 0-13.4978996-6.7762497-13.4978996-14.7289994zm-10.3687996-27.57429902h5.1869998v34.76134872c0 2.1235499.64805 2.7715999 2.1177 2.7715999.4094999 0 1.2356499-.17615 1.7049499-.3575l1.06275 4.0650999c-1.2974.5316999-2.9418999.8261499-4.2997499.8261499-3.8837498 0-5.7726498-2.1176999-5.7726498-5.8291998zm-9.0161496 37.23784862v-19.0878993c-1.3013-.41535-2.29775-.65-4.0644499-.65-5.3644498 0-9.6680996 3.7686999-9.6680996 10.4883997 0 6.1249497 3.7160498 9.8929996 9.7239996 9.8929996 1.2974 0 2.9457999-.1742 4.0085499-.6435zm-19.0885493-9.1383497c0-8.9491996 6.4180997-14.9590994 14.7231494-14.9590994 1.4157 0 2.9516499.1183 4.3653999.5278v-13.66819952h5.1817998v40.35654852c-2.1801 1.17845-5.7732998 1.9467499-9.3060497 1.9467499-8.3115497 0-14.9642994-4.8925498-14.9642994-14.2037995zm-25.4539991-14.2531994h4.4154498l.59215 3.4189998c3.0068999-2.4803999 6.1268998-4.1248998 9.6589996-4.1248998 4.4219499 0 8.4857497 2.5934999 8.4857497 9.9001496v18.6751493h-5.1830998v-16.9708493c0-3.9461499-.9431499-7.0102498-4.7774998-7.0102498-2.8229499 0-5.5340998 1.65035-8.0047497 3.7680499v20.2130492h-5.1869998zm-8.8419497 27.8687489h5.1863498v-27.8687489h-5.1863498zm-.7618-36.9420986c0-1.82714993 1.3533-3.30264988 3.2987499-3.30264988 2.0058999 0 3.4196499 1.41959995 3.4196499 3.30264988 0 1.88499993-1.47485 3.36049988-3.4196499 3.36049988-1.9454499 0-3.2987499-1.47549995-3.2987499-3.36049988zm-23.4526491-4.77294982h5.18634981v23.91934912h.11765l10.07824959-10.0730496h6.1262498l-11.96259955 11.9034495 13.13649955 15.9659494h-6.1834498l-11.19494959-13.8508494h-.11765v13.8508494h-5.18634981z" fill="#fffffe" mask="url(#b)" transform="translate(24 57)"/><g fill="#999" transform="translate(182 67)"><path d="m31.8823085 7.5h-31.8823085v-2h32l-6.5262794-3.76794919 1-1.73205081 9.5262794 5.5v2h-.1176915l-9.4085879 5.4320508-1-1.7320508z"/><path d="m31.8823085 7.5h-31.8823085v-2h32l-6.5262794-3.76794919 1-1.73205081 9.5262794 5.5v2h-.1176915l-9.4085879 5.4320508-1-1.7320508z" transform="matrix(-1 0 0 1 36 20)"/></g></g></svg>