<?xml version="1.0" encoding="UTF-8" standalone="no"?>
<svg width="9px" height="13px" viewBox="0 0 9 13" version="1.1" xmlns="http://www.w3.org/2000/svg" xmlns:xlink="http://www.w3.org/1999/xlink" xmlns:sketch="http://www.bohemiancoding.com/sketch/ns">
    <!-- Generator: Sketch 3.4.4 (17249) - http://www.bohemiancoding.com/sketch -->
    <title>Rectangle 227 Copy</title>
    <desc>Created with Sketch.</desc>
    <defs></defs>
    <g id="Owner-View" stroke="none" stroke-width="1" fill="none" fill-rule="evenodd" sketch:type="MSPage">
        <g id="5_RN_OwnerView-FTUX-3" sketch:type="MSArtboardGroup" transform="translate(-982.000000, -418.000000)" fill="#D2D2D2">
            <g id="Notes-1-Visible" sketch:type="MSLayerGroup" transform="translate(224.000000, 325.000000)">
                <g id="Note-Controls---Not-Visible-Copy-3" transform="translate(752.000000, 51.000000)" sketch:type="MSShapeGroup">
                    <path d="M12.75,43.5942968 L14.2634922,43.5942968 C14.6581793,43.5942968 15,43.9282647 15,44.340235 L15,45.0861732 L6,45.0861732 L6,44.340235 C6,43.9253925 6.32974576,43.5942968 6.73650777,43.5942968 L8.25,43.5942968 C8.25,43.1794544 8.5826898,42.8483586 8.99308348,42.8483586 L12.0069165,42.8483586 C12.4117686,42.8483586 12.75,43.1823265 12.75,43.5942968 Z M6.75,45.8321113 L6.75,52.7745324 C6.75,53.8839825 7.63980049,54.7833695 8.75986236,54.7833695 L12.2401376,54.7833695 C13.350154,54.7833695 14.25,53.8923634 14.25,52.7745324 L14.25,45.8321113 L6.75,45.8321113 Z" id="Rectangle-227-Copy"></path>
                </g>
            </g>
        </g>
    </g>
</svg>