<svg width="22" height="22" xmlns="http://www.w3.org/2000/svg"><g transform="translate(1 .5)" fill="#4D4022" fill-rule="evenodd"><path d="M15.488 6.086l3.606 3.606a.5.5 0 0 1 0 .707l-1.06 1.061-.534.54.287-.787L9.782 3.21 1.49 11.502.43 10.44a.5.5 0 0 1 0-.707L9.662.5l.12.12.12-.12 3.586 3.586V2.5a.5.5 0 0 1 .5-.5h1a.5.5 0 0 1 .5.5v3.586z"/><path d="M9.757 3.173L3.5 8.876V18.5h12.477l.021-9.708-6.24-5.619zM17.973 20.5H1.5V9.087L9.75.25 18 9l-.027 11.5z" fill-rule="nonzero"/><rect x="6.5" y="12.5" width="4" height="7" rx=".5"/></g></svg>