<svg width="16" height="16" viewBox="0 0 16 16" xmlns="http://www.w3.org/2000/svg" xmlns:xlink="http://www.w3.org/1999/xlink"><defs><circle id="a" cx="8" cy="8" r="8"/><mask id="b" x="0" y="0" width="16" height="16" fill="#fff"><use xlink:href="#a"/></mask></defs><g fill="none" fill-rule="evenodd"><use stroke="#13635D" mask="url(#b)" stroke-width="4" xlink:href="#a"/><path d="M9.028 7v5.018H7V8l-.5-.5V7h2.528zM9 5.006a.93.93 0 0 1-.08.384 1.01 1.01 0 0 1-.22.314c-.092.09-.2.162-.323.216a.976.976 0 0 1-.773 0 1.066 1.066 0 0 1-.313-.216.995.995 0 0 1-.213-.314A.958.958 0 0 1 7 5.006a.992.992 0 0 1 .291-.713 1 1 0 0 1 .313-.216 1.006 1.006 0 0 1 1.096.215c.093.093.166.2.22.321.053.122.08.253.08.393z" fill="#00635D"/></g></svg>