<svg xmlns="http://www.w3.org/2000/svg" viewBox="0 0 500 500"><path fill="#9B9B9B" d="M343.7 218.9l-46 46c-2.5 2.5-6.7.8-6.8-2.6-.2-4.2-1.3-8.3-3.1-11.8-.8-1.5-.5-3.4.7-4.6l41.1-41.1c5.4-5.4 5.4-14 0-19.4l-11.8-11.8c-5.4-5.4-14-5.4-19.4 0l-54.6 54.6c-5.4 5.4-5.4 14 0 19.4l9.7 9.7c3.9 3.9 3.9 10.2 0 14.1-.2.2-2.4 2.4-4.3 4.2-1.6 1.5-4.1 1.5-5.6 0l-4.2-4.2-9.7-9.7c-1.6-1.6-3-3.4-4.3-5.2-3.7-5.6-5.6-12-5.6-18.5 0-8.7 3.3-17.3 9.9-23.9l54.6-54.6c13.2-13.2 34.5-13.2 47.7 0l11.8 11.8c13.1 13.1 13.1 34.4-.1 47.6z"/><path fill="#9B9B9B" d="M160.5 284.2l46-46c2.5-2.5 6.7-.8 6.8 2.6.2 4.2 1.3 8.3 3.1 11.8.8 1.5.5 3.4-.7 4.6l-41.1 41.1c-5.4 5.4-5.4 14 0 19.4l11.8 11.8c5.4 5.4 14 5.4 19.4 0l54.6-54.6c5.4-5.4 5.4-14 0-19.4l-9.7-9.7c-3.9-3.9-3.9-10.2 0-14.1.2-.2 2.4-2.4 4.3-4.2 1.6-1.5 4.1-1.5 5.6 0l4.2 4.2 9.7 9.7c1.6 1.6 3 3.4 4.3 5.2 3.7 5.6 5.6 12 5.6 18.5 0 8.7-3.3 17.3-9.9 23.9l-54.6 54.6c-13.2 13.2-34.5 13.2-47.7 0l-11.8-11.8c-13.1-13.1-13.1-34.4.1-47.6z"/><circle fill="none" stroke="#9B9B9B" stroke-width="12" stroke-miterlimit="10" cx="252" cy="252" r="162"/></svg>