<svg width="52" height="52" viewBox="0 0 52 52" xmlns="http://www.w3.org/2000/svg"><title>share-pinterest-circle</title><g fill="none" fill-rule="evenodd"><circle fill="#FFF" cx="26" cy="26" r="26"/><path d="M26 0C11.64 0 0 11.64 0 26 0 37.015 6.853 46.43 16.525 50.22c-.227-2.058-.433-5.221.09-7.467.473-2.03 3.049-12.924 3.049-12.924s-.778-1.557-.778-3.86c0-3.615 2.096-6.314 4.705-6.314 2.218 0 3.29 1.665 3.29 3.662 0 2.23-1.42 5.566-2.154 8.657-.612 2.588 1.298 4.698 3.85 4.698 4.621 0 8.174-4.872 8.174-11.906 0-6.225-4.474-10.578-10.86-10.578-7.398 0-11.741 5.55-11.741 11.284 0 2.234.86 4.63 1.935 5.933.212.258.244.483.18.746-.197.821-.636 2.587-.722 2.948-.113.476-.377.577-.87.348-3.247-1.511-5.277-6.259-5.277-10.072 0-8.202 5.96-15.734 17.18-15.734 9.019 0 16.028 6.427 16.028 15.016 0 8.961-5.65 16.172-13.492 16.172-2.634 0-5.111-1.368-5.959-2.985 0 0-1.304 4.964-1.62 6.18-.587 2.259-2.171 5.09-3.231 6.816A25.987 25.987 0 0 0 26 52c14.36 0 26-11.64 26-26S40.36 0 26 0" fill="#BD071C"/></g></svg>